<?xml version="1.0" encoding="UTF-8"?>
<svg xmlns="http://www.w3.org/2000/svg" viewBox="0 0 24 24" width="24" height="24">
  <path fill="#000000" d="M12.53.02C13.84 0 15.14.01 16.44 0c.08 1.53.63 3.09 1.75 4.17 1.12 1.11 2.7 1.62 4.24 1.79v4.03c-1.44-.05-2.89-.35-4.2-.97-.57-.26-1.1-.59-1.62-.93-.01 2.92.01 5.84-.02 8.75-.08 1.4-.54 2.79-1.35 3.94-1.31 1.92-3.58 3.17-5.91 3.21-1.43.08-2.86-.31-4.08-1.03-2.02-1.19-3.44-3.37-3.65-5.71-.02-.5-.03-1-.01-1.49.18-1.9 1.12-3.72 2.58-4.96 1.66-1.44 3.98-2.13 6.15-1.72.02 1.48-.04 2.96-.04 4.44-.99-.32-2.15-.23-3.02.37-.63.41-1.11 1.04-1.36 1.75-.21.51-.15 1.07-.14 1.61.24 1.64 1.82 3.02 3.5 2.87 1.12-.01 2.19-.66 2.77-1.61.19-.33.4-.67.41-1.06.1-1.79.06-3.57.07-5.36.01-4.03-.01-8.05.02-12.07z"/>
  <path fill="#EE1D51" d="M17.08 4.93c-1.12-1.08-1.67-2.64-1.75-4.17h3.53c0 .92-.13 1.86-.54 2.7-.44.94-1.18 1.72-2.13 2.17.56.34 1.16.61 1.8.81 1.27.54 2.64.74 4.02.72V9.13c-1.48-.05-2.93-.5-4.15-1.3-.98-.62-1.81-1.46-2.38-2.46-.59.33-1.16.69-1.75.97.96.85 2.1 1.51 3.35 1.84 1.58.48 3.28.54 4.9.14v3.96c-1.43.03-2.86-.26-4.18-.85-1.32-.59-2.49-1.52-3.39-2.66-.32-.39-.59-.82-.85-1.25.01 2.92 0 5.84 0 8.76 0 .35-.06.71-.19 1.03-.33.76-.88 1.42-1.66 1.66-.81.27-1.74.18-2.47-.25-.74-.44-1.29-1.17-1.52-1.97-.14-.44-.19-.91-.16-1.38.12-.94.62-1.83 1.41-2.37.7-.49 1.58-.74 2.42-.65v4.18c-1.46-.03-2.88-.55-4.06-1.44-1.56-1.16-2.64-2.89-3.04-4.77-.1-.47-.14-.94-.15-1.42 0-1.65.58-3.28 1.71-4.5 1.21-1.34 2.96-2.21 4.8-2.35 1.71-.15 3.44.28 4.9 1.16.05-1.28 0-2.55.02-3.83.14-2.12-.03-4.29.9-6.24"></path>
  <path fill="#69C9D0" d="M12.52.02c.05 2.14-.03 4.29.04 6.43 1.33-.82 2.89-1.26 4.45-1.19 1.15.05 2.28.4 3.25 1 .07 1.57-.03 3.13.04 4.7.07 2.1-.02 4.2.04 6.3.06 3.65.04 7.3.04 10.95h-3.5c.05-2.14-.03-4.29.04-6.43-1.37.83-2.97 1.26-4.55 1.2-1.19-.08-2.35-.45-3.35-1.1-.05-1.57.03-3.13-.04-4.7-.07-2.1.02-4.2-.04-6.3-.06-3.65-.04-7.3-.04-10.95 1.19.09 2.38 0 3.57.04"></path>
</svg>